<?xml version="1.0" encoding="utf-8"?>
<!-- Generator: Adobe Illustrator 23.1.0, SVG Export Plug-In . SVG Version: 6.00 Build 0)  -->
<svg version="1.1" baseProfile="tiny" id="Layer_1" xmlns="http://www.w3.org/2000/svg" xmlns:xlink="http://www.w3.org/1999/xlink"
	 x="0px" y="0px" viewBox="0 0 132 132" xml:space="preserve">
<title>CF07F097-C2AC-4E01-80F0-69A0DF3CDFC4</title>
<desc>Created with sketchtool.</desc>
<g id="message" transform="translate(31.000000, 30.000000)">
	<circle id="surface" fill-rule="evenodd" fill="#25C3C1" cx="35" cy="36" r="66"/>
	<path id="Path" fill="#FFFFFF" d="M31.9,30.6c0.4,0.5,1.1,0.5,1.6,0.1l6-4.7c0.3-0.3,0.5-0.7,0.4-1.1c-0.1-0.4-0.3-0.7-0.7-0.9
		c-0.4-0.1-0.8-0.1-1.2,0.2l-5.2,4l-1.9-2.1c-0.3-0.3-0.7-0.5-1.1-0.4c-0.4,0.1-0.8,0.4-0.9,0.7c-0.1,0.4-0.1,0.8,0.2,1.1L31.9,30.6
		z"/>
	<path id="Shape" fill="#FFFFFF" d="M35,41c7.2,0,13-5.8,13-13c0-7.2-5.8-13-13-13c-7.2,0-13,5.8-13,13C22,35.2,27.8,41,35,41z
		 M35,17.4c5.9,0,10.6,4.8,10.6,10.6c0,5.9-4.8,10.6-10.6,10.6S24.4,33.9,24.4,28C24.4,22.1,29.1,17.4,35,17.4L35,17.4z"/>
	<path fill="#FFFFFF" d="M67.8,28.3l-11-6.8c0,0-0.1,0-0.1-0.1l-0.2-0.1v-2.9c0-0.3-0.1-0.6-0.3-0.8L41.7,1.4c0,0,0,0-0.1-0.1
		C41.4,1.1,41.1,1,40.8,1c0,0-0.1,0-0.1,0l0,0c0,0-0.1,0-0.1,0H20.1c-3.6,0-6.5,2.9-6.5,6.6v13.8L2.2,28.3C0.8,29.1,0,30.6,0,32.2
		v33C0,70.1,3.9,74,8.7,74h52.6c4.8,0,8.7-3.9,8.7-8.7v-33C70,30.6,69.2,29.1,67.8,28.3z M66.6,30.3c0.7,0.4,1,1.1,1.1,1.9V34
		l-11.2,6.9V24.1L66.6,30.3z M42,5.3l9.2,10.3h-5c-2.3,0-4.2-1.9-4.2-4.2V5.3z M20.1,3.4h19.5v8c0,3.6,2.9,6.6,6.5,6.6h7.1l0.8,0.9
		v23.5L35,54.1L15.9,42.3V7.6C15.9,5.3,17.8,3.4,20.1,3.4z M3.4,30.3l10.1-6.2v16.7L2.4,34v-1.8C2.4,31.4,2.8,30.7,3.4,30.3z
		 M61.3,71.6H8.7c-3.5,0-6.3-2.8-6.3-6.4V36.8l11.5,7.1c0.1,0.1,0.3,0.2,0.4,0.3l20.1,12.3c0.4,0.2,0.9,0.2,1.2,0l20.1-12.3
		c0.2-0.1,0.3-0.1,0.4-0.3l11.5-7.1v28.5C67.6,68.8,64.8,71.6,61.3,71.6L61.3,71.6z"/>
</g>
</svg>
