<?xml version="1.0" encoding="UTF-8"?>
<svg width="20px" height="19px" viewBox="0 0 20 19" version="1.1" xmlns="http://www.w3.org/2000/svg" xmlns:xlink="http://www.w3.org/1999/xlink">
    <!-- Generator: sketchtool 63.1 (101010) - https://sketch.com -->
    <title>543A51DF-4399-43D1-A073-716AFD1FF41C</title>
    <desc>Created with sketchtool.</desc>
    <g id="made-of-genes" stroke="none" stroke-width="1" fill="none" fill-rule="evenodd" fill-opacity="0.5">
        <g id="Burger-menu-" transform="translate(-30.000000, -480.000000)" fill="#FFFFFF" fill-rule="nonzero">
            <g id="contact" transform="translate(30.000000, 480.000000)">
                <path d="M15.1906489,16.3030283 L11.8287439,14.0618422 C11.6783562,13.962575 11.4769303,13.9952615 11.3656589,14.1369938 L10.3867754,15.3954428 C10.0695197,15.8088742 9.49695561,15.9268805 9.0420913,15.6725571 L8.86111959,15.5731731 C8.2081799,15.2169723 7.3953072,14.7738542 5.78167851,13.1602953 C4.16804982,11.5467364 3.724562,10.7338988 3.36869643,10.0806367 L3.26895744,9.8996728 C3.014662,9.44494503 3.13267347,8.8724836 3.54608376,8.55539747 L4.80423648,7.57620558 C4.94613077,7.46501701 4.97885762,7.2635218 4.87939136,7.11314062 L2.63845902,3.7510303 C2.53653825,3.59846742 2.33289151,3.55257388 2.17537404,3.64665952 L0.768703748,4.49011876 C0.466915405,4.66625174 0.244957208,4.95228767 0.149270122,5.28834676 C-0.312723962,6.97066808 0.0759074249,9.91638615 4.55025272,14.3909276 C9.02459802,18.8654691 11.9697811,19.254785 13.6535777,18.7924213 C13.9897292,18.6966215 14.2757386,18.474556 14.4518402,18.1726248 L15.2949853,16.7660153 C15.3893087,16.6086216 15.3433742,16.4048668 15.1906489,16.3030283 Z" id="Path"></path>
                <path d="M19.9432389,0.0568630915 C19.9064006,0.0199332492 19.8562444,-0.000561642211 19.8041411,1.17142989e-05 L4.88633333,1.17142989e-05 C4.83423008,-0.000561642211 4.78407388,0.0199332492 4.74723556,0.0568630915 C4.71039723,0.0937929338 4.68995313,0.144073734 4.69053725,0.196306429 L4.69053725,5.39232744 L5.53645576,6.66437703 C5.84155964,7.12650755 5.74128619,7.74603884 5.30611888,8.08777651 L4.04968281,9.0689548 C3.91531221,9.17123406 3.87608318,9.35705441 3.95782065,9.50512512 L4.06035269,9.69250699 C4.3872636,10.3157859 4.78602094,10.8984654 5.24844704,11.4285662 L19.8041411,11.4285662 C19.9109567,11.4293417 19.9983795,11.3436145 19.9999883,11.2365335 L19.9999883,0.196306429 C20.0005603,0.144073734 19.9801161,0.0937929338 19.9432389,0.0568630915 Z M9.82773109,6.54800508 L9.82773109,6.54620934 L6.18054231,10.4633882 C6.046429,10.6075941 5.82111553,10.6154798 5.67730588,10.4810723 C5.53345729,10.3466258 5.52559118,10.1207526 5.65966554,9.9765857 L9.30685432,6.06120262 C9.44096762,5.91699666 9.66628109,5.909111 9.81009075,6.04351845 C9.95393934,6.17796494 9.96184439,6.40383816 9.82773109,6.54800508 Z M12.3452372,6.26678841 C12.088654,6.26794727 11.8386519,6.18526503 11.6331594,6.03122152 L5.68244611,1.50762813 C5.52574694,1.38797701 5.49545073,1.16362626 5.61480534,1.00649876 C5.73415996,0.8494103 5.95795472,0.819038823 6.11469283,0.93868995 L12.0629529,5.46228333 C12.2312954,5.58490134 12.4592569,5.58490134 12.6276384,5.46228333 L18.5776118,0.93868995 C18.734311,0.819546315 18.9577164,0.850308171 19.0766037,1.00739663 C19.195491,1.1644851 19.1647664,1.38844546 19.0080673,1.50762813 L13.057315,6.03122152 C12.8518226,6.18526503 12.6018594,6.26794727 12.3452372,6.26678841 Z M19.0358323,10.4809162 C18.9667897,10.5455629 18.8749275,10.5800334 18.7804952,10.5767542 C18.6860629,10.573475 18.5968098,10.5327195 18.5324012,10.4634272 L14.8855629,6.54624838 C14.7616521,6.40067609 14.774347,6.18303987 14.9142625,6.05292658 C15.054217,5.92277426 15.2716254,5.92644383 15.4071406,6.06120262 L19.0532779,9.9765857 C19.1873134,10.1206745 19.1795251,10.3464307 19.0358323,10.4809162 Z" id="Shape"></path>
            </g>
        </g>
    </g>
</svg>