<?xml version="1.0" encoding="UTF-8"?>
<svg width="20px" height="19px" viewBox="0 0 20 19" version="1.1" xmlns="http://www.w3.org/2000/svg" xmlns:xlink="http://www.w3.org/1999/xlink">
    <!-- Generator: sketchtool 63.1 (101010) - https://sketch.com -->
    <title>FA65B2C0-8A37-4A7C-8DB3-98A7CF0790FF</title>
    <desc>Created with sketchtool.</desc>
    <g id="made-of-genes" stroke="none" stroke-width="1" fill="none" fill-rule="evenodd" opacity="0.50016276">
        <g id="Burger-menu-" transform="translate(-30.000000, -776.000000)" fill="#FFFFFF" fill-rule="nonzero">
            <g id="change" transform="translate(30.000000, 776.000000)">
                <path d="M4.12737782,2.01129884 L13.4139779,2.01129884 L13.4139779,0.685464492 C13.4138729,0.422768101 13.5645647,0.183137722 13.8019038,0.0685839457 C14.039243,-0.045969831 14.3214425,-0.0152780848 14.5283699,0.14759371 L19.264536,3.87157804 C19.430561,4.00106053 19.5275591,4.19941731 19.5275591,4.40944882 C19.5275591,4.61948034 19.430561,4.81783712 19.264536,4.94731961 L14.5283699,8.67130394 C14.3214425,8.83417573 14.039243,8.86486746 13.8019038,8.75031369 C13.5645647,8.63575993 13.4138729,8.39612955 13.4139779,8.13343315 L13.4139779,6.80759881 L0.687896303,6.80759881 C0.308452059,6.80647003 0.00113324037,6.50036219 0,6.1224131 L0,2.69648455 C0.00113324037,2.31853547 0.308452059,2.01242761 0.687896303,2.01129884 L4.12737782,2.01129884 Z" id="Shape"></path>
                <path d="M17.5923629,11.7750784 L19.3121037,11.7750784 C19.691548,11.7762071 19.9988668,12.082315 20,12.4602641 L20,15.8861926 C19.9988668,16.2641417 19.691548,16.5702496 19.3121037,16.5713783 L6.5860221,16.5713783 L6.5860221,17.8972127 C6.58612714,18.1599091 6.43543533,18.3995395 6.19809615,18.5140932 C5.96075696,18.628647 5.67855751,18.5979553 5.47163008,18.4350835 L0.73546404,14.7110991 C0.569438984,14.5816166 0.472440945,14.3832599 0.472440945,14.1732283 C0.472440945,13.9631968 0.569438984,13.7648401 0.73546404,13.6353576 L5.47163008,9.91137323 C5.67855751,9.74850143 5.96075696,9.7178097 6.19809615,9.83236347 C6.43543533,9.94691724 6.58612714,10.1865476 6.5860221,10.449244 L6.5860221,11.7750784 L17.5923629,11.7750784 Z" id="Shape"></path>
            </g>
        </g>
    </g>
</svg>