<?xml version="1.0" encoding="UTF-8"?>
<svg width="20px" height="20px" viewBox="0 0 20 20" version="1.1" xmlns="http://www.w3.org/2000/svg" xmlns:xlink="http://www.w3.org/1999/xlink">
    <!-- Generator: sketchtool 63.1 (101010) - https://sketch.com -->
    <title>BA493070-FC9A-4326-8474-A90A1353A9B7</title>
    <desc>Created with sketchtool.</desc>
    <g id="made-of-genes" stroke="none" stroke-width="1" fill="none" fill-rule="evenodd">
        <g id="Burger-menu-" transform="translate(-30.000000, -158.000000)" fill="#FFFFFF" fill-rule="nonzero">
            <g id="home" transform="translate(30.000000, 158.000000)">
                <path d="M19.6824646,9.0406026 L10.4324341,0.173839409 C10.1908875,-0.0579464697 9.80911254,-0.0579464697 9.56756594,0.173839409 L0.308380117,9.04975806 C0.112457266,9.24568502 0,9.51561866 0,9.79150335 C0,10.3657036 0.467529297,10.8332427 1.04171754,10.8332427 L2.5,10.8332427 L2.5,18.7499738 C2.5,19.4399907 3.05999758,20 3.75,20 L7.29171754,20 C7.63671875,20 7.91671754,19.7199953 7.91671754,19.3749869 L7.91671754,13.9583083 C7.91671754,13.8440176 8.00994875,13.7498689 8.125,13.7498689 L11.875,13.7498689 C11.9891357,13.7498689 12.0832825,13.8440176 12.0832825,13.9583083 L12.0832825,19.3749869 C12.0832825,19.7199953 12.3632813,20 12.7082825,20 L16.25,20 C16.9400024,20 17.5,19.4399907 17.5,18.7499738 L17.5,10.8332427 L18.9582825,10.8332427 C19.5324707,10.8332427 20,10.3657036 20,9.79150335 C20,9.51561866 19.8875427,9.24568502 19.6824646,9.0406026 Z" id="Path"></path>
            </g>
        </g>
    </g>
</svg>