<?xml version="1.0" encoding="utf-8"?>
<!-- Generator: Adobe Illustrator 23.1.0, SVG Export Plug-In . SVG Version: 6.00 Build 0)  -->
<svg version="1.1" id="Capa_1" xmlns="http://www.w3.org/2000/svg" xmlns:xlink="http://www.w3.org/1999/xlink" x="0px" y="0px"
     viewBox="0 0 447.7 447.7" style="enable-background:new 0 0 447.7 447.7;" xml:space="preserve">
<g>
    <path d="M260.5,59.4c0.6,1.5,0.8,2.8,0.6,3.9c-0.2,1,0.5,1.9,2,2.6s2.3,1.2,2.3,1.6c0,0.4,1.1,0.7,3.3,0.9c2.2,0.2,3.3,0.3,3.3,0.3
        h3.7h3.1H361c12.6,0,23.3,4.5,32.3,13.4c8.9,8.9,13.4,19.7,13.4,32.3v201c0,12.6-4.5,23.3-13.4,32.3c-8.9,8.9-19.7,13.4-32.3,13.4
        h-91.4c-2.5,0-4.4,0.6-5.9,1.9c-1.4,1.2-2.4,3.1-2.9,5.6c-0.5,2.5-0.8,4.7-0.9,6.7c-0.1,2,0,4.5,0.1,7.6c0.2,3,0.3,4.9,0.3,5.7
        c0,2.5,0.9,4.6,2.7,6.4c1.8,1.8,3.9,2.7,6.4,2.7H361c22.6,0,42-8,58.1-24.1c16.1-16.1,24.1-35.4,24.1-58.1v-201
        c0-22.6-8-42-24.1-58.1C403,40,383.6,32,361,32h-91.4c-2.5,0-4.4,0.6-5.9,1.9c-1.4,1.2-2.4,3.1-2.9,5.6c-0.5,2.5-0.8,4.7-0.9,6.7
        c-0.1,2,0,4.5,0.1,7.6C260.4,56.7,260.5,58.6,260.5,59.4z"/>
    <path d="M5.4,236.7L160.7,392c3.6,3.6,7.9,5.4,12.8,5.4c4.9,0,9.2-1.8,12.9-5.4c3.6-3.6,5.4-7.9,5.4-12.8v-82.2h127.9
        c5,0,9.2-1.8,12.9-5.4c3.6-3.6,5.4-7.9,5.4-12.9V169c0-4.9-1.8-9.2-5.4-12.8c-3.6-3.6-7.9-5.4-12.9-5.4H191.9V68.5
        c0-4.9-1.8-9.2-5.4-12.8c-3.6-3.6-7.9-5.4-12.9-5.4c-4.9,0-9.2,1.8-12.8,5.4L5.4,211c-3.6,3.6-5.4,7.9-5.4,12.8
        C0,228.8,1.8,233.1,5.4,236.7z"/>
</g>
</svg>
