<?xml version="1.0" encoding="UTF-8"?>
<svg width="20px" height="18px" viewBox="0 0 20 18" version="1.1" xmlns="http://www.w3.org/2000/svg" xmlns:xlink="http://www.w3.org/1999/xlink">
    <!-- Generator: sketchtool 63.1 (101010) - https://sketch.com -->
    <title>2E8CB782-AB32-4F9B-9210-9A0C9B024AC1</title>
    <desc>Created with sketchtool.</desc>
    <g id="made-of-genes" stroke="none" stroke-width="1" fill="none" fill-rule="evenodd" opacity="0.514508929">
        <g id="Burger-menu-" transform="translate(-30.000000, -418.000000)" fill="#FFFFFF" fill-rule="nonzero">
            <g id="supermarket" transform="translate(30.000000, 418.000000)">
                <path d="M6.48435681,11.7424497 L17.0704172,11.7424497 C17.3325625,11.7424497 17.5625118,11.5687616 17.633465,11.3164857 L19.977361,3.09672502 C20.0277148,2.9195203 19.9932301,2.72916663 19.882299,2.58192926 C19.7712153,2.43515055 19.5984863,2.34845937 19.4141606,2.34845937 L5.13166897,2.34845937 L4.71281639,0.459906626 C4.65330726,0.190965208 4.41527082,0 4.14061339,0 L0.585935857,0 C0.26214528,0 0,0.262672754 0,0.587114842 C0,0.911709854 0.26214528,1.17422968 0.585935857,1.17422968 L3.67033885,1.17422968 L5.78626916,10.7148459 C5.16371232,10.9860807 4.72654924,11.6069852 4.72654924,12.3295646 C4.72654924,13.3007504 5.51512125,14.0909091 6.48435681,14.0909091 L17.0704172,14.0909091 C17.3943604,14.0909091 17.6563531,13.8283893 17.6563531,13.5037942 C17.6563531,13.1793522 17.3943604,12.9166794 17.0704172,12.9166794 L6.48435681,12.9166794 C6.16163432,12.9166794 5.89842096,12.653548 5.89842096,12.3295646 C5.89842096,12.0055811 6.16163432,11.7424497 6.48435681,11.7424497 Z" id="Path"></path>
                <path d="M5.90909091,15.7954545 C5.90909091,16.7354699 6.67373575,17.5 7.61371034,17.5 C8.55353697,17.5 9.31818182,16.7354699 9.31818182,15.7954545 C9.31818182,14.8555871 8.55353697,14.0909091 7.61371034,14.0909091 C6.67373575,14.0909091 5.90909091,14.8555871 5.90909091,15.7954545 Z" id="Path"></path>
                <path d="M14.0909091,15.7954545 C14.0909091,16.7354699 14.8555871,17.5 15.7954545,17.5 C16.7354699,17.5 17.5,16.7354699 17.5,15.7954545 C17.5,14.8555871 16.7354699,14.0909091 15.7954545,14.0909091 C14.8555871,14.0909091 14.0909091,14.8555871 14.0909091,15.7954545 Z" id="Path"></path>
            </g>
        </g>
    </g>
</svg>