<?xml version="1.0" encoding="UTF-8"?>
<svg width="20px" height="16px" viewBox="0 0 20 16" version="1.1" xmlns="http://www.w3.org/2000/svg" xmlns:xlink="http://www.w3.org/1999/xlink">
    <!-- Generator: sketchtool 63.1 (101010) - https://sketch.com -->
    <title>E3537A68-DE1A-42E3-B626-1E4D4562DC36</title>
    <desc>Created with sketchtool.</desc>
    <g id="made-of-genes" stroke="none" stroke-width="1" fill="none" fill-rule="evenodd" opacity="0.514508929">
        <g id="Burger-menu-" transform="translate(-30.000000, -288.000000)" fill="#FFFFFF" fill-rule="nonzero">
            <g id="research" transform="translate(30.000000, 288.000000)">
                <path d="M19.2853672,14.5593268 L18.2134179,14.5593268 L18.2134179,1.19098979 C18.2134179,0.534274448 17.683351,0 17.031844,0 L15.0944745,0 C14.4429675,0 13.9129482,0.534322464 13.9129482,1.19098979 L13.9129482,14.5593268 L12.1501872,14.5593268 L12.1501872,5.17238358 C12.1501872,4.51566823 11.6201202,3.98139379 10.9686133,3.98139379 L9.03124375,3.98139379 C8.37973682,3.98139379 7.84966984,4.51571625 7.84966984,5.17238358 L7.84966984,14.5593268 L6.08705181,14.5593268 L6.08705181,9.19098979 C6.08705181,8.53427445 5.55698482,8 4.9054779,8 L2.96810832,8 C2.3166014,8 1.78658205,8.53432246 1.78658205,9.19098979 L1.78658205,14.5593268 L0.714632822,14.5593268 C0.319964935,14.5593268 0,14.8818505 0,15.2796634 C0,15.6774763 0.319964935,16 0.714632822,16 L19.2853672,16 C19.6800351,16 20,15.6774763 20,15.2796634 C20,14.8818505 19.6800351,14.5593268 19.2853672,14.5593268 Z" id="Path"></path>
            </g>
        </g>
    </g>
</svg>