<?xml version="1.0" encoding="UTF-8"?>
<svg width="20px" height="20px" viewBox="0 0 20 20" version="1.1" xmlns="http://www.w3.org/2000/svg" xmlns:xlink="http://www.w3.org/1999/xlink">
    <!-- Generator: sketchtool 63.1 (101010) - https://sketch.com -->
    <title>B0758807-022F-4342-8569-B3A559FB0BB5</title>
    <desc>Created with sketchtool.</desc>
    <g id="made-of-genes" stroke="none" stroke-width="1" fill="none" fill-rule="evenodd" opacity="0.498209635">
        <g id="Burger-menu-" transform="translate(-34.000000, -352.000000)" fill="#FFFFFF" fill-rule="nonzero">
            <g id="help" transform="translate(34.000000, 352.000000)">
                <path d="M20,13.5583727 C20,11.0854434 18.5813155,8.87843191 16.4565576,7.80487805 C16.3905723,12.546395 12.546395,16.3905723 7.80487805,16.4565576 C8.87843191,18.5813155 11.0854434,20 13.5583727,20 C14.7178291,20 15.8453571,19.6912069 16.8360493,19.1044849 L19.9718726,19.9718726 L19.1044849,16.8360493 C19.6912069,15.8453571 20,14.7178291 20,13.5583727 L20,13.5583727 Z" id="Path"></path>
                <path d="M15.1219512,7.56097561 C15.1219512,3.39177318 11.730178,0 7.56097561,0 C3.39177318,0 0,3.39177318 0,7.56097561 C0,8.91973947 0.361672287,10.2426987 1.0484569,11.4041593 L0.0277977044,15.0940025 L3.71779189,14.0734943 C4.87925249,14.7602789 6.20221175,15.1219512 7.56097561,15.1219512 C11.730178,15.1219512 15.1219512,11.730178 15.1219512,7.56097561 Z M6.4007236,5.80126006 L5.24047159,5.80126006 C5.24047159,4.52165919 6.28137474,3.48075604 7.56097561,3.48075604 C8.84057648,3.48075604 9.88147963,4.52165919 9.88147963,5.80126006 C9.88147963,6.45072926 9.60652408,7.07496902 9.12686259,7.51368931 L8.14110162,8.41590611 L8.14110162,9.32069116 L6.9808496,9.32069116 L6.9808496,7.90497219 L8.34354142,6.65770128 C8.58707348,6.43486641 8.72122762,6.13075349 8.72122762,5.80126006 C8.72122762,5.16145962 8.20077605,4.64100805 7.56097561,4.64100805 C6.92117517,4.64100805 6.4007236,5.16145962 6.4007236,5.80126006 Z M6.9808496,10.4809432 L8.14110162,10.4809432 L8.14110162,11.6411952 L6.9808496,11.6411952 L6.9808496,10.4809432 Z" id="Shape"></path>
            </g>
        </g>
    </g>
</svg>