<?xml version="1.0" encoding="UTF-8"?>
<svg width="15px" height="20px" viewBox="0 0 15 20" version="1.1" xmlns="http://www.w3.org/2000/svg" xmlns:xlink="http://www.w3.org/1999/xlink">
    <!-- Generator: sketchtool 63.1 (101010) - https://sketch.com -->
    <title>E23E67F7-43D9-44E8-BC48-E2B9C288E98B</title>
    <desc>Created with sketchtool.</desc>
    <g id="made-of-genes" stroke="none" stroke-width="1" fill="none" fill-rule="evenodd" opacity="0.504417783">
        <g id="Burger-menu-" transform="translate(-34.000000, -543.000000)" fill="#FFFFFF" fill-rule="nonzero">
            <g id="Terms-and-conditions-Copy" transform="translate(34.000000, 543.000000)">
                <path d="M12.8571429,0 L2.14285714,0 C0.961281709,0 0,1.01052632 0,2.25263158 L0,17.7473684 C0,18.9894737 0.961281709,20 2.14285714,20 L12.8571429,20 C14.0387183,20 15,18.9894737 15,17.7473684 L15,2.25263158 C14.9799733,1.01052632 14.0387183,0 12.8571429,0 Z M8.73164219,16.8210526 L3.04405874,16.8210526 L3.04405874,15.1789474 L8.73164219,15.1789474 L8.73164219,16.8210526 Z M11.9158879,12.8210526 L3.04405874,12.8210526 L3.04405874,11.1789474 L11.9158879,11.1789474 L11.9158879,12.8210526 Z M11.9158879,8.82105263 L3.04405874,8.82105263 L3.04405874,7.17894737 L11.9158879,7.17894737 L11.9158879,8.82105263 Z M11.9158879,4.82105263 L3.04405874,4.82105263 L3.04405874,3.17894737 L11.9158879,3.17894737 L11.9158879,4.82105263 Z" id="Shape"></path>
            </g>
        </g>
    </g>
</svg>