<?xml version="1.0" encoding="UTF-8"?>
<svg width="29px" height="30px" viewBox="0 0 29 30" version="1.1" xmlns="http://www.w3.org/2000/svg" xmlns:xlink="http://www.w3.org/1999/xlink">
    <!-- Generator: sketchtool 63.1 (101010) - https://sketch.com -->
    <title>C8E1CE80-B7D6-4728-AD4E-9E0515F028C7</title>
    <desc>Created with sketchtool.</desc>
    <g id="made-of-genes" stroke="none" stroke-width="1" fill="none" fill-rule="evenodd">
        <g id="Burger-menu-" transform="translate(-28.000000, -78.000000)" fill-rule="nonzero">
            <g id="user" transform="translate(28.000000, 78.000000)">
                <circle id="Oval" fill-opacity="0.5" fill="#FFFFFF" cx="14.5" cy="14.5" r="14.5"></circle>
                <path d="M25.6543454,24.0678571 C25.0173775,23.5767857 24.2413018,23.2232143 23.3993329,23.0517857 L19.3853374,22.2660714 C18.9643529,22.1875 18.660512,21.8196429 18.660512,21.3910714 L18.660512,20.4928571 C18.9185938,20.1392857 19.1620326,19.6696429 19.4164537,19.1785714 C19.6141333,18.7982143 19.9124832,18.225 20.0607429,18.0767857 C20.873426,17.2803571 21.6586536,16.3857143 21.9020924,15.2321429 C22.129058,14.15 21.9057532,13.5821429 21.6440106,13.125 C21.6440106,11.9839286 21.6074033,10.5553571 21.3310178,9.51607143 C21.2980712,8.10892857 21.0363287,7.31785714 20.3773965,6.625 C19.9124832,6.13392857 19.2279258,6.01964286 18.6769853,5.92857143 C18.4610019,5.89285714 18.1626521,5.84285714 18.05283,5.78571429 C17.0772443,5.27142857 16.1126407,5.01964286 14.9613397,5 C12.550746,5.09642857 9.58738137,6.59285714 8.5953223,9.26071429 C8.2878206,10.0732143 8.31893684,11.4071429 8.34456198,12.4785714 L8.32076721,13.1232143 C8.08464983,13.5732143 7.85219319,14.1446429 8.0809891,15.2303571 C8.32259758,16.3857143 9.10782514,17.2821429 9.93515115,18.0892857 C10.0705983,18.225 10.3762697,18.8035714 10.5776101,19.1857143 C10.8356919,19.675 11.0809611,20.1428571 11.3390429,20.4946429 L11.3390429,21.3928571 C11.3390429,21.8196429 11.0333715,22.1875 10.6105567,22.2678571 L6.5929005,23.0535714 C5.75642265,23.2267857 4.98034692,23.5767857 4.34520948,24.0678571 C4.14752981,24.2232143 4.02306483,24.45 4.00293079,24.6964286 C3.98279675,24.9428571 4.06699365,25.1839286 4.23721781,25.3678571 C6.97178652,28.3107143 10.8942636,30 14.9997774,30 C19.1052912,30 23.0295987,28.3125 25.762337,25.3678571 C25.9325612,25.1839286 26.0185884,24.9410714 25.996624,24.6946429 C25.97649,24.4482143 25.852025,24.2214286 25.6543454,24.0678571 Z" id="Path" fill="#21AFAD"></path>
            </g>
        </g>
    </g>
</svg>